<svg width="1920" height="850" viewBox="0 0 1920 850" fill="none" xmlns="http://www.w3.org/2000/svg">
<rect opacity="0.2" width="1920" height="850" fill="url(#paint0_linear_2495_2544)"/>
<g opacity="0.8" clip-path="url(#clip0_2495_2544)">
<path d="M91.9073 688.537C90.6208 688.537 89.6559 687.565 89.6559 686.268C89.6559 684.972 90.6208 684 91.9073 684C93.1938 684 94.1587 684.972 94.1587 686.268C94.1587 687.565 93.0866 688.537 91.9073 688.537Z" fill="white"/>
<path d="M91.9073 707.871C90.6208 707.871 89.6559 706.899 89.6559 705.602C89.6559 704.306 90.6208 703.334 91.9073 703.334C93.1938 703.334 94.1587 704.306 94.1587 705.602C94.1587 706.791 93.0866 707.871 91.9073 707.871Z" fill="white"/>
<path d="M91.9073 727.099C90.6208 727.099 89.6559 726.127 89.6559 724.831C89.6559 723.535 90.6208 722.562 91.9073 722.562C93.1938 722.562 94.1587 723.535 94.1587 724.831C94.1587 726.127 93.0866 727.099 91.9073 727.099Z" fill="white"/>
<path d="M91.9073 746.433C90.6208 746.433 89.6559 745.461 89.6559 744.165C89.6559 742.869 90.6208 741.896 91.9073 741.896C93.1938 741.896 94.1587 742.869 94.1587 744.165C94.1587 745.461 93.0866 746.433 91.9073 746.433Z" fill="white"/>
<path d="M91.9073 765.769C90.6208 765.769 89.6559 764.797 89.6559 763.501C89.6559 762.205 90.6208 761.232 91.9073 761.232C93.1938 761.232 94.1587 762.205 94.1587 763.501C94.1587 764.689 93.0866 765.769 91.9073 765.769Z" fill="white"/>
<path d="M91.9073 785.103C90.6208 785.103 89.6559 784.131 89.6559 782.835C89.6559 781.539 90.6208 780.566 91.9073 780.566C93.1938 780.566 94.1587 781.539 94.1587 782.835C94.1587 784.131 93.0866 785.103 91.9073 785.103Z" fill="white"/>
<path d="M91.9073 804.33C90.6208 804.33 89.6559 803.358 89.6559 802.061C89.6559 800.765 90.6208 799.793 91.9073 799.793C93.1938 799.793 94.1587 800.765 94.1587 802.061C94.1587 803.358 93.0866 804.33 91.9073 804.33Z" fill="white"/>
<path d="M91.9073 823.666C90.6208 823.666 89.6559 822.693 89.6559 821.397C89.6559 820.101 90.6208 819.129 91.9073 819.129C93.1938 819.129 94.1587 820.101 94.1587 821.397C94.1587 822.693 93.0866 823.666 91.9073 823.666Z" fill="white"/>
<path d="M91.9073 843C90.6208 843 89.6559 842.027 89.6559 840.731C89.6559 839.435 90.6208 838.463 91.9073 838.463C93.1938 838.463 94.1587 839.435 94.1587 840.731C94.1587 841.919 93.0866 843 91.9073 843Z" fill="white"/>
<path d="M75.9337 688.537C74.6472 688.537 73.6823 687.565 73.6823 686.268C73.6823 684.972 74.6472 684 75.9337 684C77.2202 684 78.1851 684.972 78.1851 686.268C78.1851 687.565 77.2202 688.537 75.9337 688.537Z" fill="white"/>
<path d="M75.9337 707.871C74.6472 707.871 73.6823 706.899 73.6823 705.602C73.6823 704.306 74.6472 703.334 75.9337 703.334C77.2202 703.334 78.1851 704.306 78.1851 705.602C78.1851 706.791 77.2202 707.871 75.9337 707.871Z" fill="white"/>
<path d="M75.9337 727.099C74.6472 727.099 73.6823 726.127 73.6823 724.831C73.6823 723.535 74.6472 722.562 75.9337 722.562C77.2202 722.562 78.1851 723.535 78.1851 724.831C78.1851 726.127 77.2202 727.099 75.9337 727.099Z" fill="white"/>
<path d="M75.9337 746.433C74.6472 746.433 73.6823 745.461 73.6823 744.165C73.6823 742.869 74.6472 741.896 75.9337 741.896C77.2202 741.896 78.1851 742.869 78.1851 744.165C78.1851 745.461 77.2202 746.433 75.9337 746.433Z" fill="white"/>
<path d="M75.9337 765.769C74.6472 765.769 73.6823 764.797 73.6823 763.501C73.6823 762.205 74.6472 761.232 75.9337 761.232C77.2202 761.232 78.1851 762.205 78.1851 763.501C78.1851 764.689 77.2202 765.769 75.9337 765.769Z" fill="white"/>
<path d="M75.9337 785.103C74.6472 785.103 73.6823 784.131 73.6823 782.835C73.6823 781.539 74.6472 780.566 75.9337 780.566C77.2202 780.566 78.1851 781.539 78.1851 782.835C78.1851 784.131 77.2202 785.103 75.9337 785.103Z" fill="white"/>
<path d="M75.9337 804.33C74.6472 804.33 73.6823 803.358 73.6823 802.061C73.6823 800.765 74.6472 799.793 75.9337 799.793C77.2202 799.793 78.1851 800.765 78.1851 802.061C78.1851 803.358 77.2202 804.33 75.9337 804.33Z" fill="white"/>
<path d="M75.9337 823.666C74.6472 823.666 73.6823 822.693 73.6823 821.397C73.6823 820.101 74.6472 819.129 75.9337 819.129C77.2202 819.129 78.1851 820.101 78.1851 821.397C78.1851 822.693 77.2202 823.666 75.9337 823.666Z" fill="white"/>
<path d="M75.9337 843C74.6472 843 73.6823 842.027 73.6823 840.731C73.6823 839.435 74.6472 838.463 75.9337 838.463C77.2202 838.463 78.1851 839.435 78.1851 840.731C78.1851 841.919 77.2202 843 75.9337 843Z" fill="white"/>
<path d="M123.749 688.537C122.462 688.537 121.497 687.565 121.497 686.268C121.497 684.972 122.462 684 123.749 684C125.035 684 126 684.972 126 686.268C126 687.565 125.035 688.537 123.749 688.537Z" fill="white"/>
<path d="M123.749 707.873C122.462 707.873 121.497 706.9 121.497 705.604C121.497 704.308 122.462 703.336 123.749 703.336C125.035 703.336 126 704.308 126 705.604C126 706.792 125.035 707.873 123.749 707.873Z" fill="white"/>
<path d="M123.749 727.099C122.462 727.099 121.497 726.127 121.497 724.831C121.497 723.535 122.462 722.562 123.749 722.562C125.035 722.562 126 723.643 126 724.831C126 726.127 125.035 727.099 123.749 727.099Z" fill="white"/>
<path d="M123.749 746.433C122.462 746.433 121.497 745.461 121.497 744.165C121.497 742.869 122.462 741.896 123.749 741.896C125.035 741.896 126 742.977 126 744.165C126 745.353 125.035 746.433 123.749 746.433Z" fill="white"/>
<path d="M123.749 765.769C122.462 765.769 121.497 764.797 121.497 763.501C121.497 762.205 122.462 761.232 123.749 761.232C125.035 761.232 126 762.205 126 763.501C126 764.689 125.035 765.769 123.749 765.769Z" fill="white"/>
<path d="M123.749 785.103C122.462 785.103 121.497 784.131 121.497 782.835C121.497 781.539 122.462 780.566 123.749 780.566C125.035 780.566 126 781.539 126 782.835C126 784.131 125.035 785.103 123.749 785.103Z" fill="white"/>
<path d="M123.749 804.33C122.462 804.33 121.497 803.358 121.497 802.061C121.497 800.765 122.462 799.793 123.749 799.793C125.035 799.793 126 800.765 126 802.061C126 803.358 125.035 804.33 123.749 804.33Z" fill="white"/>
<path d="M123.749 823.666C122.462 823.666 121.497 822.693 121.497 821.397C121.497 820.101 122.462 819.129 123.749 819.129C125.035 819.129 126 820.101 126 821.397C126 822.693 125.035 823.666 123.749 823.666Z" fill="white"/>
<path d="M123.749 843C122.462 843 121.497 842.027 121.497 840.731C121.497 839.435 122.462 838.463 123.749 838.463C125.035 838.463 126 839.435 126 840.731C126 841.919 125.035 843 123.749 843Z" fill="white"/>
<path d="M107.774 688.537C106.488 688.537 105.523 687.565 105.523 686.268C105.523 684.972 106.595 684 107.774 684C109.061 684 110.026 684.972 110.026 686.268C110.026 687.565 109.061 688.537 107.774 688.537Z" fill="white"/>
<path d="M107.774 707.871C106.488 707.871 105.523 706.899 105.523 705.602C105.523 704.306 106.488 703.334 107.774 703.334C109.061 703.334 110.026 704.306 110.026 705.602C110.026 706.791 109.061 707.871 107.774 707.871Z" fill="white"/>
<path d="M107.774 727.099C106.488 727.099 105.523 726.127 105.523 724.831C105.523 723.535 106.488 722.562 107.774 722.562C109.061 722.562 110.026 723.535 110.026 724.831C110.026 726.127 109.061 727.099 107.774 727.099Z" fill="white"/>
<path d="M107.774 746.433C106.488 746.433 105.523 745.461 105.523 744.165C105.523 742.869 106.488 741.896 107.774 741.896C109.061 741.896 110.026 742.869 110.026 744.165C110.026 745.461 109.061 746.433 107.774 746.433Z" fill="white"/>
<path d="M107.774 765.769C106.488 765.769 105.523 764.797 105.523 763.501C105.523 762.205 106.488 761.232 107.774 761.232C109.061 761.232 110.026 762.205 110.026 763.501C110.026 764.689 109.061 765.769 107.774 765.769Z" fill="white"/>
<path d="M107.774 785.103C106.488 785.103 105.523 784.131 105.523 782.835C105.523 781.539 106.488 780.566 107.774 780.566C109.061 780.566 110.026 781.539 110.026 782.835C110.026 784.131 109.061 785.103 107.774 785.103Z" fill="white"/>
<path d="M107.774 804.33C106.488 804.33 105.523 803.358 105.523 802.061C105.523 800.765 106.488 799.793 107.774 799.793C109.061 799.793 110.026 800.765 110.026 802.061C110.026 803.358 109.061 804.33 107.774 804.33Z" fill="white"/>
<path d="M107.774 823.666C106.488 823.666 105.523 822.693 105.523 821.397C105.523 820.101 106.488 819.129 107.774 819.129C109.061 819.129 110.026 820.101 110.026 821.397C110.026 822.693 109.061 823.666 107.774 823.666Z" fill="white"/>
<path d="M107.774 843C106.488 843 105.523 842.027 105.523 840.731C105.523 839.435 106.488 838.463 107.774 838.463C109.061 838.463 110.026 839.435 110.026 840.731C110.026 841.919 109.061 843 107.774 843Z" fill="white"/>
<path d="M60.0665 688.537C58.78 688.537 57.8151 687.565 57.8151 686.268C57.8151 684.972 58.78 684 60.0665 684C61.353 684 62.3179 684.972 62.3179 686.268C62.3179 687.565 61.2458 688.537 60.0665 688.537Z" fill="white"/>
<path d="M60.0665 707.871C58.78 707.871 57.8151 706.899 57.8151 705.602C57.8151 704.306 58.78 703.334 60.0665 703.334C61.353 703.334 62.3179 704.306 62.3179 705.602C62.3179 706.791 61.2458 707.871 60.0665 707.871Z" fill="white"/>
<path d="M60.0665 727.099C58.78 727.099 57.8151 726.127 57.8151 724.831C57.8151 723.535 58.78 722.562 60.0665 722.562C61.353 722.562 62.3179 723.535 62.3179 724.831C62.3179 726.127 61.2458 727.099 60.0665 727.099Z" fill="white"/>
<path d="M60.0665 746.433C58.78 746.433 57.8151 745.461 57.8151 744.165C57.8151 742.869 58.78 741.896 60.0665 741.896C61.353 741.896 62.3179 742.869 62.3179 744.165C62.3179 745.461 61.2458 746.433 60.0665 746.433Z" fill="white"/>
<path d="M60.0665 765.769C58.78 765.769 57.8151 764.797 57.8151 763.501C57.8151 762.205 58.78 761.232 60.0665 761.232C61.353 761.232 62.3179 762.205 62.3179 763.501C62.3179 764.689 61.2458 765.769 60.0665 765.769Z" fill="white"/>
<path d="M60.0665 785.103C58.78 785.103 57.8151 784.131 57.8151 782.835C57.8151 781.539 58.78 780.566 60.0665 780.566C61.353 780.566 62.3179 781.539 62.3179 782.835C62.3179 784.131 61.2458 785.103 60.0665 785.103Z" fill="white"/>
<path d="M60.0665 804.33C58.78 804.33 57.8151 803.358 57.8151 802.061C57.8151 800.765 58.78 799.793 60.0665 799.793C61.353 799.793 62.3179 800.765 62.3179 802.061C62.3179 803.358 61.2458 804.33 60.0665 804.33Z" fill="white"/>
<path d="M60.0665 823.666C58.78 823.666 57.8151 822.693 57.8151 821.397C57.8151 820.101 58.78 819.129 60.0665 819.129C61.353 819.129 62.3179 820.101 62.3179 821.397C62.3179 822.693 61.2458 823.666 60.0665 823.666Z" fill="white"/>
<path d="M60.0665 843C58.78 843 57.8151 842.027 57.8151 840.731C57.8151 839.435 58.78 838.463 60.0665 838.463C61.353 838.463 62.3179 839.435 62.3179 840.731C62.3179 841.919 61.2458 843 60.0665 843Z" fill="white"/>
<path d="M44.0924 688.537C42.8059 688.537 41.841 687.565 41.841 686.268C41.841 684.972 42.8059 684 44.0924 684C45.3789 684 46.3437 684.972 46.3437 686.268C46.3437 687.565 45.3789 688.537 44.0924 688.537Z" fill="white"/>
<path d="M44.0924 707.871C42.8059 707.871 41.841 706.899 41.841 705.602C41.841 704.306 42.8059 703.334 44.0924 703.334C45.3789 703.334 46.3437 704.306 46.3437 705.602C46.3437 706.791 45.3789 707.871 44.0924 707.871Z" fill="white"/>
<path d="M44.0924 727.099C42.8059 727.099 41.841 726.127 41.841 724.831C41.841 723.535 42.8059 722.562 44.0924 722.562C45.3789 722.562 46.3437 723.535 46.3437 724.831C46.3437 726.127 45.3789 727.099 44.0924 727.099Z" fill="white"/>
<path d="M41.841 744.165C41.841 745.418 42.849 746.433 44.0924 746.433C45.3358 746.433 46.3437 745.418 46.3437 744.165C46.3437 742.912 45.3358 741.896 44.0924 741.896C42.849 741.896 41.841 742.912 41.841 744.165Z" fill="white"/>
<path d="M44.0924 765.769C42.8059 765.769 41.841 764.797 41.841 763.501C41.841 762.205 42.8059 761.232 44.0924 761.232C45.3789 761.232 46.3437 762.205 46.3437 763.501C46.3437 764.689 45.3789 765.769 44.0924 765.769Z" fill="white"/>
<path d="M44.0924 785.103C42.8059 785.103 41.841 784.131 41.841 782.835C41.841 781.539 42.8059 780.566 44.0924 780.566C45.3789 780.566 46.3437 781.539 46.3437 782.835C46.3437 784.131 45.3789 785.103 44.0924 785.103Z" fill="white"/>
<path d="M44.0924 804.33C42.8059 804.33 41.841 803.358 41.841 802.061C41.841 800.765 42.8059 799.793 44.0924 799.793C45.3789 799.793 46.3437 800.765 46.3437 802.061C46.3437 803.358 45.3789 804.33 44.0924 804.33Z" fill="white"/>
<path d="M41.841 821.397C41.841 822.65 42.849 823.666 44.0924 823.666C45.3358 823.666 46.3437 822.65 46.3437 821.397C46.3437 820.144 45.3358 819.129 44.0924 819.129C42.849 819.129 41.841 820.144 41.841 821.397Z" fill="white"/>
<path d="M44.0924 843C42.8059 843 41.841 842.027 41.841 840.731C41.841 839.435 42.8059 838.463 44.0924 838.463C45.3789 838.463 46.3437 839.435 46.3437 840.731C46.3437 841.919 45.3789 843 44.0924 843Z" fill="white"/>
<path d="M28.1182 688.537C26.8317 688.537 25.8669 687.565 25.8669 686.268C25.8669 684.972 26.8317 684 28.1182 684C29.4047 684 30.3696 684.972 30.3696 686.268C30.3696 687.565 29.4047 688.537 28.1182 688.537Z" fill="white"/>
<path d="M28.1182 707.871C26.8317 707.871 25.8669 706.899 25.8669 705.602C25.8669 704.306 26.8317 703.334 28.1182 703.334C29.4047 703.334 30.3696 704.306 30.3696 705.602C30.3696 706.791 29.4047 707.871 28.1182 707.871Z" fill="white"/>
<path d="M28.1182 727.099C26.8317 727.099 25.8669 726.127 25.8669 724.831C25.8669 723.535 26.8317 722.562 28.1182 722.562C29.4047 722.562 30.3696 723.535 30.3696 724.831C30.3696 726.127 29.4047 727.099 28.1182 727.099Z" fill="white"/>
<path d="M28.1182 746.433C26.8317 746.433 25.8669 745.461 25.8669 744.165C25.8669 742.869 26.8317 741.896 28.1182 741.896C29.4047 741.896 30.3696 742.869 30.3696 744.165C30.3696 745.461 29.4047 746.433 28.1182 746.433Z" fill="white"/>
<path d="M28.1182 765.769C26.8317 765.769 25.8669 764.797 25.8669 763.501C25.8669 762.205 26.8317 761.232 28.1182 761.232C29.4047 761.232 30.3696 762.205 30.3696 763.501C30.3696 764.689 29.4047 765.769 28.1182 765.769Z" fill="white"/>
<path d="M28.1182 785.103C26.8317 785.103 25.8669 784.131 25.8669 782.835C25.8669 781.539 26.8317 780.566 28.1182 780.566C29.4047 780.566 30.3696 781.539 30.3696 782.835C30.3696 784.131 29.4047 785.103 28.1182 785.103Z" fill="white"/>
<path d="M28.1182 804.33C26.8317 804.33 25.8669 803.358 25.8669 802.061C25.8669 800.765 26.8317 799.793 28.1182 799.793C29.4047 799.793 30.3696 800.765 30.3696 802.061C30.3696 803.358 29.4047 804.33 28.1182 804.33Z" fill="white"/>
<path d="M28.1182 823.666C26.8317 823.666 25.8669 822.693 25.8669 821.397C25.8669 820.101 26.8317 819.129 28.1182 819.129C29.4047 819.129 30.3696 820.101 30.3696 821.397C30.3696 822.693 29.4047 823.666 28.1182 823.666Z" fill="white"/>
<path d="M28.1182 843C26.8317 843 25.8669 842.027 25.8669 840.731C25.8669 839.435 26.8317 838.463 28.1182 838.463C29.4047 838.463 30.3696 839.435 30.3696 840.731C30.3696 841.919 29.4047 843 28.1182 843Z" fill="white"/>
<path d="M12.2515 688.537C10.965 688.537 10.0002 687.565 10.0002 686.268C10.0002 684.972 10.965 684 12.2515 684C13.538 684 14.5029 684.972 14.5029 686.268C14.5029 687.565 13.4308 688.537 12.2515 688.537Z" fill="white"/>
<path d="M12.2515 707.871C10.965 707.871 10.0002 706.899 10.0002 705.602C10.0002 704.306 10.965 703.334 12.2515 703.334C13.538 703.334 14.5029 704.306 14.5029 705.602C14.5029 706.791 13.4308 707.871 12.2515 707.871Z" fill="white"/>
<path d="M12.2515 727.099C10.965 727.099 10.0002 726.127 10.0002 724.831C10.0002 723.535 10.965 722.562 12.2515 722.562C13.538 722.562 14.5029 723.535 14.5029 724.831C14.5029 726.127 13.4308 727.099 12.2515 727.099Z" fill="white"/>
<path d="M12.2515 746.433C10.965 746.433 10.0002 745.461 10.0002 744.165C10.0002 742.869 10.965 741.896 12.2515 741.896C13.538 741.896 14.5029 742.869 14.5029 744.165C14.5029 745.461 13.4308 746.433 12.2515 746.433Z" fill="white"/>
<path d="M12.2515 765.769C10.965 765.769 10.0001 764.797 10.0001 763.501C10.0001 762.205 10.965 761.232 12.2515 761.232C13.538 761.232 14.5029 762.205 14.5029 763.501C14.5029 764.689 13.4308 765.769 12.2515 765.769Z" fill="white"/>
<path d="M12.2515 785.103C10.965 785.103 10.0001 784.131 10.0001 782.835C10.0001 781.539 10.965 780.566 12.2515 780.566C13.538 780.566 14.5029 781.539 14.5029 782.835C14.5029 784.131 13.4308 785.103 12.2515 785.103Z" fill="white"/>
<path d="M12.2515 804.33C10.965 804.33 10.0001 803.358 10.0001 802.061C10.0001 800.765 10.965 799.793 12.2515 799.793C13.538 799.793 14.5029 800.765 14.5029 802.061C14.5029 803.358 13.4308 804.33 12.2515 804.33Z" fill="white"/>
<path d="M12.2515 823.666C10.965 823.666 10.0001 822.693 10.0001 821.397C10.0001 820.101 10.965 819.129 12.2515 819.129C13.538 819.129 14.5029 820.101 14.5029 821.397C14.5029 822.693 13.4308 823.666 12.2515 823.666Z" fill="white"/>
<path d="M12.2515 843C10.965 843 10.0001 842.027 10.0001 840.731C10.0001 839.435 10.965 838.463 12.2515 838.463C13.538 838.463 14.5029 839.435 14.5029 840.731C14.5029 841.919 13.4308 843 12.2515 843Z" fill="white"/>
</g>
<g opacity="0.2" clip-path="url(#clip1_2495_2544)">
<path d="M1768.1 6C1689.54 6 1626 69.5443 1626 148.097C1626 226.456 1689.54 290.195 1768.1 290.195C1846.46 290.195 1910.19 226.651 1910.19 148.097C1910 69.5443 1846.46 6 1768.1 6ZM1768.1 281.034C1694.61 281.034 1635.16 221.583 1635.16 148.097C1635.16 74.6122 1694.61 15.1613 1768.1 15.1613C1841.58 15.1613 1901.03 74.6122 1901.03 148.097C1901.03 221.388 1841.39 281.034 1768.1 281.034Z" fill="white"/>
<path d="M1768.1 36.6035C1706.7 36.6035 1656.8 86.5033 1656.8 147.903C1656.8 209.304 1706.7 259.203 1768.1 259.203C1829.5 259.203 1879.4 209.499 1879.4 148.098C1879.4 86.5033 1829.5 36.6035 1768.1 36.6035ZM1768.1 242.245C1716.05 242.245 1673.76 199.947 1673.76 147.903C1673.76 95.8595 1716.05 53.5616 1768.1 53.5616C1820.14 53.5616 1862.44 95.8595 1862.44 147.903C1862.44 199.947 1820.14 242.245 1768.1 242.245Z" fill="white"/>
<path d="M1768.1 85.5273C1733.6 85.5273 1705.53 113.596 1705.53 148.097C1705.53 182.598 1733.4 210.667 1768.1 210.667C1802.6 210.667 1830.67 182.598 1830.67 148.097C1830.47 113.596 1802.6 85.5273 1768.1 85.5273ZM1768.1 181.623C1749.58 181.623 1734.57 166.614 1734.57 148.097C1734.57 129.579 1749.58 114.571 1768.1 114.571C1786.62 114.571 1801.62 129.579 1801.62 148.097C1801.62 166.614 1786.62 181.623 1768.1 181.623Z" fill="white"/>
</g>
<defs>
<linearGradient id="paint0_linear_2495_2544" x1="-7.15256e-05" y1="850" x2="966.121" y2="-624.851" gradientUnits="userSpaceOnUse">
<stop stop-color="#FF3F3A"/>
<stop offset="1" stop-color="#F75E05"/>
</linearGradient>
<clipPath id="clip0_2495_2544">
<rect width="159" height="116" fill="white" transform="translate(126 684) rotate(90)"/>
</clipPath>
<clipPath id="clip1_2495_2544">
<rect width="284" height="284" fill="white" transform="translate(1626 6)"/>
</clipPath>
</defs>
</svg>
